<?xml version="1.0" encoding="UTF-8" standalone="no"?>
<!-- Created with Inkscape (http://www.inkscape.org/) -->

<svg
   version="1.1"
   id="svg1"
   width="1017.9803"
   height="640.49677"
   viewBox="0 0 1017.9803 640.49677"
   sodipodi:docname="krea-merch-logo-transparent-2025.svg"
   inkscape:version="1.4.2 (f4327f4, 2025-05-13)"
   xmlns:inkscape="http://www.inkscape.org/namespaces/inkscape"
   xmlns:sodipodi="http://sodipodi.sourceforge.net/DTD/sodipodi-0.dtd"
   xmlns="http://www.w3.org/2000/svg"
   xmlns:svg="http://www.w3.org/2000/svg">
  <defs
     id="defs1" />
  <sodipodi:namedview
     id="namedview1"
     pagecolor="#ffffff"
     bordercolor="#000000"
     borderopacity="0.25"
     inkscape:showpageshadow="2"
     inkscape:pageopacity="0.0"
     inkscape:pagecheckerboard="0"
     inkscape:deskcolor="#d1d1d1"
     showgrid="false"
     inkscape:zoom="0.78808594"
     inkscape:cx="554.50805"
     inkscape:cy="335.6233"
     inkscape:window-width="1920"
     inkscape:window-height="1009"
     inkscape:window-x="-8"
     inkscape:window-y="-8"
     inkscape:window-maximized="1"
     inkscape:current-layer="g1" />
  <g
     inkscape:groupmode="layer"
     inkscape:label="Image"
     id="g1"
     transform="translate(-4.0183779,-176.59851)">
    <g
       id="g64"
       transform="matrix(1.3946069,0,0,1.3946069,-192.70387,-172.32453)">
      <path
         style="fill:#02b8bc"
         d="M 310.30119,694.31225 C 299.8167,638.60223 287.73184,577.38788 287.08542,576.7156 286.26502,575.86238 266.32893,568.66965 228,555.39822 c -13.475,-4.66574 -25.625,-8.9 -27,-9.40948 -1.375,-0.50948 -15.1,-5.22864 -30.5,-10.48701 -15.4,-5.25838 -28.6116,-9.77714 -29.3591,-10.04169 -0.79976,-0.28304 4.34472,-4.87179 12.5,-11.14971 16.68409,-12.84338 96.30831,-74.95882 108.59609,-84.7166 6.85935,-5.44705 8.84471,-7.59954 9.23822,-10.01591 0.27568,-1.6928 2.7672,-28.50282 5.53671,-59.57782 2.76951,-31.075 6.14665,-68.425 7.50475,-83 1.3581,-14.575 2.47244,-26.63479 2.4763,-26.79954 0.004,-0.16475 4.16953,3.13217 9.25703,7.3265 58.82093,48.49416 119.80641,96.66537 121.5384,96.00074 0.73339,-0.28142 17.84352,-5.27857 38.02252,-11.10476 20.17899,-5.82619 54.42294,-15.73344 76.09765,-22.0161 21.67472,-6.28267 39.54177,-11.28983 39.70456,-11.12704 0.16279,0.16279 -5.48625,19.40393 -12.55344,42.75809 L 546.21027,394.5 l -19.5138,0.27084 -19.51381,0.27083 4.39136,-13.77083 c 2.41524,-7.57396 4.39914,-14.07693 4.40867,-14.45103 0.01,-0.37411 -1.44519,-0.25135 -3.23269,0.2728 -37.3358,10.94794 -106.22117,29.94056 -107.21284,29.56002 -0.72858,-0.27958 -9.36,-7.20349 -19.18093,-15.38647 -21.91703,-18.26168 -65.61042,-53.3453 -65.97836,-52.97736 -0.14805,0.14805 -2.54643,24.55614 -5.32974,54.24019 -2.7833,29.68406 -5.31215,55.54601 -5.61967,57.47101 -0.35603,2.22868 -1.53429,4.20482 -3.24379,5.4404 -1.47657,1.06722 -21.48926,16.33684 -44.47264,33.93249 l -41.78797,31.9921 38.78797,13.15797 c 21.33338,7.23688 44.24184,15.06981 50.90767,17.40651 l 12.11971,4.24855 0.66974,8.66099 c 0.36836,4.76354 2.02255,24.0799 3.67598,42.92523 l 3.00624,34.26423 -3.99451,20.73577 c -2.19698,11.40467 -5.38514,28.38576 -7.08481,37.73576 -1.69966,9.35 -3.41801,17.81551 -3.81856,18.81225 -0.46082,1.14672 -1.89024,-4.36194 -3.8923,-15 z M 621.75,680.26276 c 2.8875,-0.202 7.6125,-0.202 10.5,0 2.8875,0.202 0.525,0.36728 -5.25,0.36728 -5.775,0 -8.1375,-0.16528 -5.25,-0.36728 z M 477.43466,655 c 0,-14.025 0.14065,-19.7625 0.31255,-12.75 0.1719,7.0125 0.1719,18.4875 0,25.5 -0.1719,7.0125 -0.31255,1.275 -0.31255,-12.75 z m 138.90815,16.5 c 0.004,-4.4 0.17944,-6.07561 0.39069,-3.72357 0.21124,2.35204 0.20827,5.95204 -0.007,8 -0.21487,2.04796 -0.38771,0.12357 -0.38408,-4.27643 z m -242.26386,3.91667 c 0.048,-1.16495 0.28494,-1.4019 0.60416,-0.60417 0.28887,0.72187 0.25335,1.58438 -0.0789,1.91667 -0.33229,0.33229 -0.56864,-0.25834 -0.52522,-1.3125 z m 0,-14 c 0.048,-1.16495 0.28494,-1.4019 0.60416,-0.60417 0.28887,0.72187 0.25335,1.58438 -0.0789,1.91667 -0.33229,0.33229 -0.56864,-0.25834 -0.52522,-1.3125 z M 374.38176,647.5 c 0.002,-6.6 0.16382,-9.16987 0.35965,-5.71081 0.19583,3.45905 0.19422,8.85905 -0.004,12 -0.19781,3.14094 -0.35803,0.31081 -0.35606,-6.28919 z m 241.94638,-6 c 0.004,-3.85 0.18518,-5.30246 0.40166,-3.2277 0.21647,2.07477 0.21284,5.22477 -0.008,7 -0.22091,1.77524 -0.39803,0.0777 -0.39359,-3.7723 z m -67.64264,-0.24812 c 9.45202,-0.1642 25.20202,-0.16448 35,-6.2e-4 9.79797,0.16387 2.0645,0.29822 -17.1855,0.29856 -19.25,3.4e-4 -27.26653,-0.13373 -17.8145,-0.29794 z M 374.27236,630 c 0,-2.475 0.19502,-3.4875 0.43337,-2.25 0.23836,1.2375 0.23836,3.2625 0,4.5 -0.23835,1.2375 -0.43337,0.225 -0.43337,-2.25 z m 242,-2 c 0,-2.475 0.19502,-3.4875 0.43337,-2.25 0.23836,1.2375 0.23836,3.2625 0,4.5 -0.23835,1.2375 -0.43337,0.225 -0.43337,-2.25 z m -139.19341,-1.58333 c 0.048,-1.16495 0.28494,-1.4019 0.60416,-0.60417 0.28887,0.72187 0.25335,1.58438 -0.0789,1.91667 -0.33229,0.33229 -0.56864,-0.25834 -0.52522,-1.3125 z m 20.116,-3.91667 c 0.0204,-1.65 0.2445,-2.20394 0.49804,-1.23097 0.25354,0.97297 0.23687,2.32297 -0.0371,3 -0.27393,0.67703 -0.48137,-0.11903 -0.46099,-1.76903 z m 252.58857,-3.2384 c 2.90594,-0.20265 7.40594,-0.20052 10,0.005 2.59406,0.20525 0.21648,0.37104 -5.28352,0.36844 -5.5,-0.003 -7.62242,-0.17053 -4.71648,-0.37317 z M 616.15789,614 c 0,-1.375 0.22698,-1.9375 0.50439,-1.25 0.27741,0.6875 0.27741,1.8125 0,2.5 -0.27741,0.6875 -0.50439,0.125 -0.50439,-1.25 z m -160.39623,-7.70726 c 1.24391,-0.23919 3.04391,-0.23011 4,0.0202 0.95609,0.25029 -0.0617,0.446 -2.26166,0.4349 -2.2,-0.0111 -2.98225,-0.21589 -1.73834,-0.45508 z m 369.05084,0.0241 c 0.72187,-0.28887 1.58438,-0.25335 1.91667,0.0789 0.33229,0.33229 -0.25834,0.56864 -1.3125,0.52522 -1.16495,-0.048 -1.4019,-0.28494 -0.60417,-0.60416 z M 616.19495,597.5 c 0.0204,-1.65 0.2445,-2.20394 0.49804,-1.23097 0.25354,0.97297 0.23687,2.32297 -0.0371,3 -0.27393,0.67703 -0.48137,-0.11903 -0.46099,-1.76903 z M 358.25,590.26496 c 2.6125,-0.206 6.8875,-0.206 9.5,0 2.6125,0.206 0.475,0.37454 -4.75,0.37454 -5.225,0 -7.3625,-0.16854 -4.75,-0.37454 z m 264.03017,-10e-4 c 2.6291,-0.20668 6.6791,-0.20418 9,0.006 2.32091,0.20972 0.16983,0.37882 -4.78017,0.37577 -4.95,-0.003 -6.84892,-0.17464 -4.21983,-0.38131 z M 404.8125,588.31689 c 0.72187,-0.28887 1.58438,-0.25335 1.91667,0.0789 0.33229,0.33229 -0.25834,0.56864 -1.3125,0.52522 -1.16495,-0.048 -1.4019,-0.28494 -0.60417,-0.60416 z m 146.9375,0.0208 c 0.6875,-0.27741 1.8125,-0.27741 2.5,0 0.6875,0.27741 0.125,0.50439 -1.25,0.50439 -1.375,0 -1.9375,-0.22698 -1.25,-0.50439 z m 9.0625,-0.0208 c 0.72187,-0.28887 1.58438,-0.25335 1.91667,0.0789 0.33229,0.33229 -0.25834,0.56864 -1.3125,0.52522 -1.16495,-0.048 -1.4019,-0.28494 -0.60417,-0.60416 z m 156,0 c 0.72187,-0.28887 1.58438,-0.25335 1.91667,0.0789 0.33229,0.33229 -0.25834,0.56864 -1.3125,0.52522 -1.16495,-0.048 -1.4019,-0.28494 -0.60417,-0.60416 z m 7,0 c 0.72187,-0.28887 1.58438,-0.25335 1.91667,0.0789 0.33229,0.33229 -0.25834,0.56864 -1.3125,0.52522 -1.16495,-0.048 -1.4019,-0.28494 -0.60417,-0.60416 z M 799.36523,572.5 c 0.003,-5.5 0.17053,-7.62242 0.37317,-4.71648 0.20265,2.90594 0.20052,7.40594 -0.005,10 C 799.52842,580.37758 799.36263,578 799.36523,572.5 Z M 714.38536,548 c 0,-6.875 0.15977,-9.6875 0.35504,-6.25 0.19527,3.4375 0.19527,9.0625 0,12.5 -0.19527,3.4375 -0.35504,0.625 -0.35504,-6.25 z m -0.22747,-109 c 0,-1.375 0.22698,-1.9375 0.50439,-1.25 0.27741,0.6875 0.27741,1.8125 0,2.5 -0.27741,0.6875 -0.50439,0.125 -0.50439,-1.25 z m 0.0371,-9.5 c 0.0204,-1.65 0.2445,-2.20394 0.49804,-1.23097 0.25354,0.97297 0.23687,2.32297 -0.0371,3 -0.27393,0.67703 -0.48137,-0.11903 -0.46099,-1.76903 z"
         id="path66" />
      <path
         style="fill:#0077d2"
         d="m 546.33537,680.57738 c -23.32864,-5.65771 -38.23352,-28.89115 -34.39709,-53.61755 3.17942,-20.49184 18.18028,-35.41066 38.12218,-37.91371 22.55457,-2.83098 40.90341,6.9101 48.51565,25.75612 2.56297,6.34527 4.74388,18.27096 4.24168,23.19442 l -0.31779,3.11557 -35.27505,-0.08 -35.27505,-0.08 0.65815,2.77389 c 3.06655,12.92471 13.21368,21.25435 25.89195,21.25435 7.07293,0 14.42231,-3.04809 18.93709,-7.85398 C 580.3406,654.03575 580.48657,654 590.20394,654 h 9.82975 l -2.618,5.16637 c -8.75563,17.2784 -30.5141,26.39876 -51.08032,21.41101 z M 581.43386,623.75 c -1.59837,-5.13087 -2.45771,-6.70757 -5.61687,-10.3057 -9.19378,-10.47126 -27.57164,-10.32139 -36.89814,0.3009 C 535.92245,617.15792 533,622.69914 533,624.96788 533,625.64937 541.34612,626 557.56739,626 h 24.56739 z m 127.67847,56.66945 c -29.3008,-7.87997 -43.51457,-40.06868 -29.70029,-67.25966 7.85917,-15.46938 23.24086,-24.35982 42.08796,-24.32636 19.20922,0.0341 34.58921,9.09304 41.98699,24.73066 1.38216,2.92163 2.5136,5.45243 2.51431,5.62398 7.2e-4,0.17156 -4.83678,0.31193 -10.75,0.31193 H 744.5 l -2.81935,-3.83707 c -6.07486,-8.26776 -20.84507,-11.41622 -31.05092,-6.61891 -10.36009,4.86982 -16.23787,15.67682 -15.41104,28.33502 1.04895,16.05874 10.29318,25.51237 25.78131,26.36534 6.71827,0.36999 8.07327,0.1182 13,-2.41567 3.47789,-1.78872 6.38882,-4.20742 7.91754,-6.57871 l 2.41754,-3.75 h 10.80771 10.80771 l -0.93755,2.46594 c -6.76795,17.80106 -23.71225,28.68688 -44.31217,28.46825 -3.41043,-0.0362 -8.62523,-0.71783 -11.58845,-1.51474 z M 354,635.56862 v -44.43138 l 9.50224,-0.31862 9.50224,-0.31862 -0.002,5.84267 -0.002,5.84267 5.04837,-4.53892 c 6.81118,-6.12384 14.33634,-8.91476 24.03346,-8.91351 12.272,0.002 19.10513,3.21773 25.19603,11.85896 l 3.03357,4.30375 4.59428,-4.89044 c 8.23127,-8.76185 21.77606,-13.0529 34.68989,-10.98991 12.99486,2.07594 21.35895,8.75757 25.48033,20.35488 2.01793,5.67833 2.21459,8.50537 2.66982,38.37985 l 0.49143,32.25 h -10.05085 -10.05085 l -0.31774,-29.28034 c -0.31642,-29.15907 -0.32834,-29.30092 -2.87648,-34.25 -7.62405,-14.80767 -30.77805,-13.10584 -37.39058,2.74822 -1.2778,3.06364 -1.55068,8.73872 -1.55068,32.25 V 680 H 425.5 415 l -0.022,-29.25 c -0.0198,-26.29757 -0.20831,-29.65375 -1.86808,-33.25 -3.27621,-7.09857 -9.03962,-10.5 -17.7913,-10.5 -8.12879,0 -14.63386,4.00774 -18.66598,11.5 -2.03634,3.78382 -2.1699,5.55377 -2.47133,32.75 L 373.86269,680 H 363.93135 354 Z m 262.50359,-0.1469 0.004,-44.5779 9.74669,-0.17191 9.7467,-0.17191 0.003,7 0.003,7 1.85544,-3.04262 c 4.40918,-7.2303 12.78682,-11.88247 23.38708,-12.98702 l 6.75,-0.70335 v 10.48499 10.48499 l -7.25,0.47342 c -8.50466,0.55535 -14.43428,3.19804 -18.17245,8.09903 C 637.47842,623.99474 637,627.1956 637,654.62573 V 680 l -10.25,-1.9e-4 -10.25,-1.8e-4 z M 779,621.5 V 563 h 9.87825 9.87826 l 0.7272,18.42486 c 0.39996,10.13368 0.42819,18.90868 0.0627,19.5 -1.22641,1.98438 0.0997,1.10212 4.18559,-2.78472 13.97506,-13.29416 40.29661,-13.00298 52.25109,0.57802 7.15029,8.12316 7.38837,9.57676 7.78506,47.53184 L 864.1209,680 h -10.00492 -10.00492 l -0.30554,-29.28044 c -0.30422,-29.15275 -0.31669,-29.3021 -2.85944,-34.25 -3.54479,-6.89775 -9.09018,-9.96453 -17.94611,-9.92477 -7.70778,0.0346 -13.27169,2.53512 -17.76184,7.98245 C 800.41736,620.37571 800,623.4304 800,652.86602 V 680 H 789.5 779 Z M 670.8105,443.25191 c 7.87078,-0.16916 20.47078,-0.16875 28,9.2e-4 7.52923,0.16966 1.0895,0.30807 -14.3105,0.30756 -15.4,-5e-4 -21.56027,-0.13932 -13.6895,-0.30848 z"
         id="path65" />
      <path
         style="fill:#002c48"
         d="m 354,488 v -72 h 16.5 16.5 v 30 c 0,19.11439 0.35892,30 0.98917,30 0.54405,0 12.56347,-13.5 26.70983,-30 l 25.72066,-30 h 19.37627 19.37626 l -9.39434,10.75 c -13.43126,15.36946 -48.0303,55.43914 -49.61547,57.46044 -1.18396,1.50971 0.31414,3.69196 13.04175,18.9976 7.90865,9.51058 21.06772,25.39196 29.24236,35.29196 8.17465,9.9 15.53811,18.7875 16.36324,19.75 1.42185,1.65855 0.42773,1.75 -19.02461,1.75 h -20.52485 l -20.40714,-25.75 c -11.22393,-14.1625 -22.59887,-28.5625 -25.27765,-32 -2.67878,-3.4375 -5.25413,-6.25 -5.723,-6.25 C 387.38362,496 387,510.4 387,528 v 32 H 370.5 354 Z m 140,-0.075 V 415.85 l 37.25,0.38783 c 35.8093,0.37283 37.49278,0.47633 43.52716,2.67598 7.64861,2.78807 17.09509,9.57279 21.3329,15.32188 10.84891,14.7178 12.75554,34.85557 4.72637,49.91982 -4.78043,8.96901 -10.86699,13.82781 -25.62138,20.45311 -0.15672,0.0704 3.17432,5.69972 7.40231,12.50967 4.22799,6.80995 11.88533,19.24422 17.0163,27.63172 L 608.9627,560 590.23135,559.98211 571.5,559.96421 557.0633,533.98211 542.6266,508 H 534.8133 527 v 26 26 H 510.5 494 Z m 67.98202,-7.00194 c 5.68419,-2.57832 7.71914,-4.43834 10.30923,-9.42305 3.93246,-7.56812 2.31804,-16.81508 -3.95197,-22.63584 C 562.57095,443.50914 560.37523,443 543.04966,443 H 527 v 20 20 l 15.25,-0.022 c 13.16621,-0.019 15.86243,-0.29976 19.73202,-2.05499 z M 623,488 v -72 h 45.5 45.5 l 5.9e-4,13.75 5.9e-4,13.75 -29.00059,-0.27954 L 656,442.94093 V 458.97046 475 H 681.5 707 V 488.5 502 H 681.5 656 v 15.5 15.5 h 29 29 V 546.5 560 H 668.5 623 Z m 103.99712,71.25 c -0.002,-0.4125 5.37398,-15.375 11.94571,-33.25 12.50269,-34.00714 37.59108,-102.518 39.2745,-107.25 l 0.97832,-2.75 19.65218,0.0174 19.65217,0.0174 14.91377,40.73259 c 8.20258,22.40293 20.01508,54.6613 26.25,71.68526 C 865.8987,545.47662 871,559.53912 871,559.70266 871,559.8662 863.23707,560 853.74904,560 H 836.49808 L 832,547 827.50192,534 h -28.68173 -28.68174 l -4.29045,13 -4.29046,13 h -17.27877 c -9.50332,0 -17.28007,-0.3375 -17.28165,-0.75 z m 90.74616,-53.5 c -0.25889,-0.6875 -4.693,-13.51709 -9.85359,-28.5102 -5.16059,-14.9931 -9.49697,-26.9181 -9.6364,-26.5 -0.13943,0.41811 -4.51811,13.2477 -9.73041,28.5102 l -9.4769,27.75 h 19.584 c 15.25157,0 19.47987,-0.27653 19.1133,-1.25 z"
         id="path64" />
    </g>
  </g>
</svg>
